<?xml version="1.0" encoding="utf-8"?>
<!-- Generator: Adobe Illustrator 28.3.0, SVG Export Plug-In . SVG Version: 6.00 Build 0)  -->
<svg version="1.1" id="Capa_1" xmlns="http://www.w3.org/2000/svg" xmlns:xlink="http://www.w3.org/1999/xlink" x="0px" y="0px"
	 viewBox="0 0 50 38" style="enable-background:new 0 0 50 38;" xml:space="preserve">
<style type="text/css">
	.st0{fill:#44000D;}
</style>
<path class="st0" d="M39.6,13.8c-0.1-1.1,0-4.3,2.8-8.6c0.2-0.3,0.2-0.8-0.1-1c-1.2-1.2-1.9-2-2.4-2.5c-0.7-0.7-1-1-1.4-1.5
	c-0.3-0.3-0.7-0.3-1,0C32.5,4.7,27,14.1,27.8,25.6c0.5,6.7,5.1,11.6,11.1,11.6C45,37.2,50,31.9,50,25.5C50,19.3,45.4,14.2,39.6,13.8
	z M38.9,35.5c-5.1,0-9.1-4.2-9.5-10.1C28.5,12.5,35.8,4.2,38,1.9c0.2,0.2,0.5,0.5,0.8,0.9c0.4,0.5,1,1.1,1.9,2.1
	c-3.4,5.6-2.8,9.6-2.5,10.1c0.1,0.3,0.4,0.5,0.7,0.5c5.3,0,9.5,4.5,9.5,10C48.4,31,44.2,35.5,38.9,35.5z"/>
<path class="st0" d="M11.8,13.8c-0.1-1.1,0-4.3,2.8-8.6c0.2-0.3,0.2-0.8-0.1-1c-1.2-1.2-1.9-2-2.4-2.5c-0.7-0.7-1-1-1.4-1.5
	c-0.3-0.3-0.7-0.3-1,0C4.8,4.7-0.7,14.1,0.1,25.6c0.5,6.7,5.1,11.6,11.1,11.6c6.1,0,11.1-5.2,11.1-11.7
	C22.3,19.3,17.6,14.2,11.8,13.8z M11.2,35.5C6,35.5,2,31.3,1.6,25.4C0.7,12.5,8,4.2,10.2,1.9c0.2,0.2,0.5,0.5,0.8,0.9
	c0.4,0.5,1,1.1,1.9,2.1c-3.4,5.6-2.8,9.6-2.5,10.1c0.1,0.3,0.4,0.5,0.7,0.5c5.3,0,9.5,4.5,9.5,10C20.7,31,16.4,35.5,11.2,35.5z"/>
</svg>
