<?xml version="1.0" encoding="utf-8"?>
<!-- Generator: Adobe Illustrator 28.3.0, SVG Export Plug-In . SVG Version: 6.00 Build 0)  -->
<svg version="1.1" id="Capa_1" xmlns="http://www.w3.org/2000/svg" xmlns:xlink="http://www.w3.org/1999/xlink" x="0px" y="0px"
	 viewBox="0 0 67.8 67.8" style="enable-background:new 0 0 67.8 67.8;" xml:space="preserve">
<style type="text/css">
	.st0{fill:#44000D;}
</style>
<g id="Capa_2_00000125581908042143638350000006261684397601253806_">
	<g id="Capa_3">
		<path class="st0" d="M65.5,57.8c0.5,0,0.9,0,1.3,0c0.5-0.1,0.9,0.3,1,0.8c0,0.1,0,0.1,0,0.2c0,2.7,0,5.3,0,8c0,0.5-0.3,1-0.9,1
			c0,0-0.1,0-0.1,0H1.6c-1.4,0-1.6-0.2-1.6-1.6v-6.9c0-1.2,0.2-1.5,1.4-1.5h0.9c-0.5-1.4-1-2.8-1.4-4.2C0.3,51.8,0,49.9,0,48
			c0.1-3.8,2.4-5.9,6.2-5.5L7,42.5l-2.4-9c-0.3,0.1-0.6,0.1-0.8,0.2C2.5,34,1.2,33.2,0.9,32c-0.4-1.2,0.3-2.5,1.6-2.9
			c0.8-0.3,1.7-0.5,2.6-0.7L3.9,24c-0.3,0.1-0.7,0.2-1,0.2c-1.3,0.3-2.6-0.5-2.9-1.8c-0.3-1.2,0.4-2.5,1.7-2.8
			c2.2-0.6,4.3-1.2,6.5-1.7c1.3-0.4,2.6,0.4,2.9,1.6s-0.4,2.6-1.6,2.9c-0.3,0.1-0.6,0.2-1,0.3l1.2,4.4l2.3-0.6
			c1.3-0.4,2.6,0.3,3,1.5c0.4,1.3-0.3,2.6-1.5,3c-0.1,0-0.2,0-0.2,0.1l-0.5,0.2l3,11.2c1.2-0.1,2.4-0.1,3.6,0c2.3,0.2,4,2,4.2,4.3
			c0.2,2.4-0.1,4.9-0.9,7.2c-0.4,1.2-0.8,2.5-1.2,3.5c1.1,0.2,2.2,0.5,3.3,0.9c0.9,0.5,1.7,1.2,2.3,2c1,1.4,2.6,2.2,4.3,2.1
			c1.9,0,3.8,0,5.7,0c1.4,0.1,2.8-0.6,3.6-1.8c1.3-2,3.6-3.2,6-3l-0.4-1c-1.1-2.7-1.8-5.6-2-8.5c0-0.6,0-1.3,0.2-1.9
			c0.7-2.9,3-4.4,6.3-3.9c1.6,0.3,3.2,0.7,4.8,1.3c0.4,0.1,0.8,0.1,1.2,0c1.5-0.5,3.1-0.9,4.7-1.2c0.9-0.1,1.8-0.1,2.7,0.1
			c2.3,0.5,3.6,2.3,3.8,5c0,2.6-0.5,5.2-1.4,7.7C66.1,56.2,65.8,56.9,65.5,57.8z M2,65.9h63.9v-6.1h-0.7c-6.3,0-12.5,0-18.8,0
			c-1.7-0.1-3.2,0.7-4.1,2.1c-1.2,1.8-3.2,2.8-5.3,2.7c-1.8,0-3.5,0-5.3,0c-2.5,0.2-4.9-1-6.3-3.1c-0.6-0.9-1.6-1.5-2.7-1.6
			c-1.9-0.1-3.7,0-5.7,0l0.9,3.4c0.2,0.8,0,1.3-0.6,1.4s-1-0.2-1.2-1c-0.4-1.3-0.7-2.6-1.1-4H2V65.9z M48.7,57.8c0.1,0,0.2,0,0.2,0
			c4.7,0,9.4,0,14.1,0c0.2,0,0.5-0.2,0.6-0.4c0.6-1.7,1.3-3.4,1.8-5.2c0.5-1.6,0.7-3.2,0.5-4.9c-0.3-2.1-1.3-3-3.4-3
			c-1.9,0.1-3.8,0.5-5.5,1.4c-0.6,0.3-1.3,0.3-1.9,0c-1.8-0.9-3.7-1.3-5.7-1.3c-1.5-0.1-2.9,1-3.1,2.6c-0.1,0.7-0.2,1.5-0.1,2.2
			C46.6,52.1,47.4,55,48.7,57.8L48.7,57.8z M14.2,56.8c-1,0-1.2-0.2-1.5-1.1c-0.1-0.4-0.2-0.8-0.3-1.1c-0.1-0.3-0.3-0.5-0.5-0.6
			c-1.3-0.5-2.3-1.6-2.6-3c-0.5-1.8-1-3.5-1.4-5.3c-0.1-0.6-0.6-1.1-1.2-1.1c-3.2-0.4-4.7,0.8-4.6,4s1.3,6.3,2.5,9.4h10L14.2,56.8z
			 M11.8,35.1c-0.6,0.2-1.2,0.3-1.7,0.4S8.9,35.5,8.8,35c-0.1-0.5,0.2-1.1,0.7-1.2c0,0,0,0,0.1,0c0.5-0.2,1.1-0.3,1.7-0.5l-0.4-1.5
			L6.4,33c0,0.2,0.1,0.4,0.1,0.5c1.2,4.6,2.4,9.2,3.7,13.8c0.3,1.1,0.6,2.3,0.9,3.4c0.4,1.2,1.7,1.8,2.9,1.4c0,0,0.1,0,0.1,0
			c1.1-0.4,1.7-1.6,1.3-2.8c0,0,0,0,0,0c-0.7,0.1-1.5,0.5-1.8-0.5s0.7-1.2,1.4-1.5l-0.2-0.9c-0.6,0.2-1.2,0.3-1.7,0.4
			s-1.1-0.1-1.3-0.6c-0.1-0.5,0.2-1.1,0.7-1.2c0,0,0,0,0.1,0c0.5-0.2,1.1-0.3,1.7-0.5L14,43.6c-0.8,0.1-1.6,0.6-1.9-0.5
			s0.7-1.1,1.4-1.4l-0.2-0.9c-0.6,0.2-1.1,0.3-1.7,0.4s-1.1-0.1-1.3-0.6s0.1-1,0.8-1.2s1.1-0.3,1.7-0.5L12.5,38
			c-0.7,0.1-1.6,0.5-1.9-0.5s0.7-1.2,1.4-1.5L11.8,35.1z M19.3,57.8c0.7-2.2,1.4-4.3,2-6.5c0.4-1.4,0.5-2.8,0.2-4.3
			c-0.1-0.9-0.6-1.8-1.4-2.2c-1.2-0.5-2.6-0.6-3.9-0.2c0.4,1.4,0.7,2.8,1.1,4.1c0.4,1.1,0.2,2.4-0.5,3.4c-0.5,0.6-0.6,1.4-0.3,2.1
			c0,0.1,0.1,0.2,0.1,0.3c0.3,1.1,0.2,1.2-0.7,1.9c0.1,0.4,0.2,0.8,0.3,1.2c0.1,0.2,0.2,0.3,0.4,0.3C17.6,57.8,18.4,57.8,19.3,57.8z
			 M12.9,28.4c-0.2,0-0.4,0.1-0.5,0.1l-8.9,2.4C3.1,31,2.7,31,2.8,31.5s0.5,0.4,0.9,0.2l5.6-1.5c1.2-0.3,2.4-0.6,3.6-1
			c0.2-0.1,0.4-0.4,0.4-0.6S13,28.4,12.9,28.4z M2.4,22.4h0.3c2-0.5,4.1-1.1,6.1-1.7c0.2,0,0.3-0.4,0.5-0.6C9,20,8.7,19.8,8.5,19.8
			c-1.6,0.4-3.1,0.8-4.6,1.2c-0.5,0.1-1,0.3-1.5,0.4C2.2,21.6,2,21.8,2,22C2,22.2,2.3,22.3,2.4,22.4L2.4,22.4z M7,27.9l0.9-0.2
			l-1.2-4.4l-0.9,0.2L7,27.9z"/>
		<path class="st0" d="M24.5,40c0.5-3.6-0.5-7.1-1.6-10.5c-0.3-1-0.4-2-0.6-2.9c-0.1-0.3-0.2-0.6-0.3-0.8C20,22.3,18,19,16.1,15.6
			c-1.2-1.7-0.8-4,0.8-5.2c0.3-0.2,0.5-0.3,0.8-0.4l10.7-5.4c0.4-0.1,0.6-0.5,0.7-0.8c0.6-2.6,3.3-4.2,5.9-3.6
			c1.8,0.4,3.2,1.8,3.6,3.6c0.1,0.4,0.4,0.7,0.7,0.9l10.5,5.3c2.5,1.3,3.2,3.4,1.8,5.8c-1.7,3-3.4,5.9-5.1,8.9
			c-0.6,0.9-0.9,1.9-1.2,3c-0.3,1.5-0.7,3-1.2,4.5c-0.6,2-0.9,4-0.9,6.1c0.2,2.9,0,5.9-0.4,8.8c-0.2,1.2-0.6,2.4-1.1,3.5
			c-1.2,2.4-2.9,2.4-4.3,0.2c-0.9-1.6-1.3-3.4-1.2-5.2c0-1.1-0.1-2.3-0.2-3.4c-0.1-0.4-0.2-0.8-0.5-1.2c-0.3-0.7-0.9-1.2-1.6-1.2
			c-0.7,0.1-1.4,0.5-1.6,1.2c-0.3,0.6-0.5,1.2-0.6,1.9c-0.1,1.2,0,2.5-0.2,3.8c-0.1,1.1-0.4,2.2-0.7,3.3c-0.2,0.6-0.6,1.2-1.1,1.7
			c-1.1,1.1-2.1,1.1-3.1-0.1c-0.8-1.1-1.4-2.3-1.5-3.7c-0.2-0.9-0.3-1.7-0.4-2.6C24.6,43.4,24.6,41.7,24.5,40z M28.4,50.4
			c0.4-0.7,0.7-1.4,1-2.1c0.2-1.1,0.2-2.3,0.4-3.5c0.1-1.4,0.3-2.7,0.5-4c0.4-1.7,1.9-3,3.7-3.1c1.8,0.1,3.3,1.4,3.7,3.1
			c0.3,1.4,0.5,2.7,0.5,4.1c0.1,1.1,0.1,2.3,0.4,3.4c0.2,0.7,0.5,1.4,0.9,2h0.3c0.3-0.7,0.6-1.4,0.9-2.2c0.6-2.7,0.9-5.4,0.7-8.2
			c-0.2-3.3,0.3-6.7,1.5-9.8c0.7-1.9,1-3.9,1-5.9c-0.1-2.4-1.3-3.5-3.7-3.5c-1.8,0.1-3.6,0.5-5.2,1.3c-0.6,0.3-1.3,0.3-1.9,0
			c-1.8-0.9-3.7-1.3-5.7-1.3c-1.6-0.1-3,1.1-3.1,2.7c-0.1,0.4-0.1,0.8-0.1,1.2c0.2,1.8,0.5,3.7,1,5.4c1.1,3.2,1.6,6.5,1.4,9.8
			c-0.1,2.6,0,5.1,0.5,7.7C27.2,48.6,27.7,49.6,28.4,50.4L28.4,50.4z M23.1,20.8c1.9-1.7,3-2.2,5.4-1.9c1.1,0.1,2.2,0.3,3.3,0.7
			c1.4,0.7,3,0.7,4.4,0c1-0.4,2.1-0.6,3.2-0.7c2.1-0.4,4.2,0.4,5.5,2c0.4-2.2,0.9-4.3,1.3-6.4c0-0.2-0.2-0.4-0.3-0.5
			c-2.8-1.6-5.6-3.3-8.4-4.9c-0.2-0.1-0.5-0.1-0.7,0c-1.6,1.1-3.7,1.1-5.4,0c-0.2-0.1-0.5-0.1-0.8,0c-2.8,1.6-5.5,3.2-8.3,4.8
			c-0.3,0.2-0.5,0.4-0.4,0.7c0.2,0.8,0.3,1.6,0.5,2.4C22.5,18.2,22.8,19.5,23.1,20.8L23.1,20.8z M33.9,7.9c1.7,0,3-1.3,3-3
			s-1.3-3-3-3c-1.6,0-3,1.3-3,2.9C30.9,6.5,32.2,7.9,33.9,7.9C33.8,7.9,33.9,7.9,33.9,7.9z M29.2,6.4L28,7l-9.4,4.7
			c-1.1,0.6-1.6,1.5-1,2.5c1,1.9,2.1,3.7,3.2,5.5h0.1c-0.4-1.9-0.7-3.8-1.1-5.6c-0.2-0.6,0.1-1.3,0.7-1.5c2-1.1,3.9-2.3,5.9-3.4
			l3.2-1.9L29.2,6.4z M47,19.8L47,19.8c0.2-0.1,0.3-0.3,0.4-0.4c0.9-1.6,1.8-3.2,2.7-4.8c0.6-0.8,0.5-1.9-0.2-2.6
			c-0.2-0.2-0.4-0.3-0.6-0.3l-6.2-3l-4.4-2.2l-0.4,0.9l8.1,4.7c2.1,1.2,2,0.9,1.5,3.3C47.5,16.8,47.2,18.3,47,19.8z"/>
	</g>
</g>
</svg>
