<?xml version="1.0" encoding="utf-8"?>
<!-- Generator: Adobe Illustrator 28.3.0, SVG Export Plug-In . SVG Version: 6.00 Build 0)  -->
<svg version="1.1" id="Capa_1" xmlns="http://www.w3.org/2000/svg" xmlns:xlink="http://www.w3.org/1999/xlink" x="0px" y="0px"
	 viewBox="0 0 71.2 65.2" style="enable-background:new 0 0 71.2 65.2;" xml:space="preserve">
<style type="text/css">
	.st0{fill:#44000D;}
</style>
<g id="Capa_2_00000085969404487491617060000015473567420329498028_">
	<g id="Capa_1-2">
		<path class="st0" d="M11.6,11.6c0.7,0.2,1.3,0.4,2.1,0.7l3.7-8.3c-0.9-0.3-1.7-0.6-2.5-0.9c-1-0.3-2-0.7-3.1-0.9
			C9.9,1.8,8,2.6,7.1,4.2c-1,1.6-0.9,3.7,0.3,5.1C7.5,9.6,7.6,9.8,7.8,10C9,10.7,10.3,11.2,11.6,11.6z M64,57.5
			c0.4-1.8,0.2-3.7,0.4-5.5c0.3-2,1-3.8,2.1-5.5c1.1-1.7,1.9-3.6,2.4-5.6c0.7-3.8-0.1-7-3.4-9.1c-3.2-2.2-7.4-2.2-10.6-0.1
			c-0.6,0.4-1.3,0.6-1.9,0.9c-0.2,0.1-0.4,0.3-0.6,0.4c-1.8,1.5-3.9,2.6-6.2,2.9c-0.7,0.1-1,0.5-1,1.2c0,4.5,0,9,0,13.4
			c0,2.7-1,3.6-3.7,3.6c-0.1,0-0.2,0-0.3,0c0,2.5,0,5.1,1.5,7.3s3.7,2.1,5,0.1c0.8-1.3,1.4-2.7,1.9-4.1c0.4-0.9,0.7-1.9,1-2.8
			c0.1-0.3,0.3-0.7,0.5-1c0.4-0.9,1.3-1.3,2.2-0.9c0.4,0.2,0.7,0.5,0.9,0.9c0.3,0.6,0.6,1.2,0.9,1.9c0.5,1.4,1,2.9,1.6,4.3
			c0.3,0.8,0.8,1.6,1.4,2.3c1.2,1.2,3,1.4,4,0C62.9,60.7,63.6,59.1,64,57.5z M63.9,63.2c-1.6,2.7-5.3,2.5-7.5,0.2
			c-1.1-1.2-1.9-2.7-2.4-4.2c-0.5-1.3-0.9-2.5-1.4-4c-0.2,0.7-0.4,1.2-0.6,1.7c-0.5,2-1.4,3.9-2.5,5.7c-1.1,1.9-3.4,2.9-5.6,2.3
			c-1.6-0.5-3-1.7-3.7-3.3c-0.9-1.9-1.4-4.1-1.2-6.2c0.2-1-0.5-2-1.5-2.3c-3.7-1.6-6.1-5.2-6.2-9.3c-0.1-3.3,0-6.6,0-9.9V33
			c-1.8,0.2-3.5,0.3-5.3,0.4c-5.4,0.4-10.9,0.5-16.3,0.1c-1.4-0.1-2.8-0.2-4.2-0.4c-2.8-0.4-5-2.5-5.5-5.3c0-0.1-0.1-0.2-0.1-0.3
			v-1.8c0.1-0.4,0.2-0.8,0.3-1.1c0.9-3,3.8-4.9,6.9-4.6c6.1,0.6,12.3,0.6,18.5,0.2c0.2,0,0.3-0.1,0.5-0.2c-1.3-0.6-2.6-1.3-3.9-1.9
			c-3.6-1.5-7.3-2.9-11-4.4c0,0-4.2-1.4-5.2-2.5c-1-1.1-1.6-2.4-1.7-3.9C3.9,3.7,6.6,0.4,10.2,0c0.9-0.1,1.9,0,2.8,0.3
			C18.8,2,24.4,4.2,29.8,6.9c2.8,1.4,5.5,2.8,8.2,4.3c0.7,0.4,1.5,0.5,2.2,0.2c4.4-1.5,9.3-0.4,12.6,2.9c4.9,4.7,9.7,9.6,14.5,14.4
			c0.3,0.2,0.5,0.5,0.7,0.8c3.4,5.4,4.8,10.2,1.2,16.7c-1.1,1.6-1.9,3.3-2.4,5.2c-0.2,1.1-0.3,2.1-0.4,3.2c0,1.1-0.2,2.1-0.3,3.2
			C65.4,59.7,64.8,61.5,63.9,63.2L63.9,63.2z M25.6,17.3c1.8,0.9,3.5,1.9,5.2,2.7c1.8,0.8,2.9,2.6,2.7,4.6c-0.1,6.3,0,12.5,0,18.8
			c0,4.6,3.6,8.3,8.2,8.6c1.1,0.1,1.3-0.1,1.3-1.2c0-4.6,0-9.2,0-13.8c-0.2-1.6,1-3,2.6-3.1c0.1,0,0.1,0,0.2,0
			c5.8-1,9.6-6.4,8.7-12.2c-1-5.8-6.4-9.6-12.2-8.7c-0.5,0.1-1,0.2-1.5,0.4c-1.3,0.4-2.7,0.3-3.8-0.4c-2.3-1.3-4.7-2.5-7-3.7L29.3,9
			L25.6,17.3z M19.4,4.7l-3.7,8.2l8,3.4L27.4,8L19.4,4.7z M22.4,31.6c-0.1-3-0.2-5.8-0.3-8.6c0-0.5-0.3-0.5-0.6-0.5l-5.7,0.1h-2.1
			c0,2.9,0,5.7,0,8.5c0.1,0.2,0.3,0.4,0.5,0.4C16.9,31.6,19.6,31.6,22.4,31.6z M11.3,22.4c-1.7-0.1-3.2-0.4-4.8-0.4
			c-2.3,0-4.3,1.8-4.4,4.2C2,28.5,3.5,30.5,5.7,31c0.5,0.1,0.9,0.2,1.4,0.2l4.5,0.4L11.3,22.4z M24.3,22.4l0.2,9.1l6.8-0.6v-6.4
			c0-1.9-0.8-2.6-2.6-2.5C27.3,22.1,25.9,22.2,24.3,22.4L24.3,22.4z M55.5,29.1c2.8-1.1,5.8-1.2,8.7-0.3l-7.5-7.5
			C57,24,56.6,26.7,55.5,29.1z"/>
		<path class="st0" d="M55.4,43.5c-0.6,0-1.1,0-1.7,0c-0.6,0-1-0.4-1.1-0.9c0-0.1,0-0.1,0-0.2c0-0.6,0.4-1,1-1c0,0,0.1,0,0.1,0h3.3
			c0.5-0.1,1,0.3,1.1,0.9c0,0,0,0.1,0,0.1c0,0.6-0.4,1.1-1,1.1c0,0-0.1,0-0.1,0H55.4z"/>
		<path class="st0" d="M60.9,41.3c0-0.2,0-0.4,0-0.6c0-0.6,0.4-1.1,1-1.1c0.6,0,1.1,0.5,1.1,1c0,0,0,0,0,0c0,0.4,0,0.8,0,1.2
			c0.1,0.6-0.4,1.1-1,1.2c-0.6,0.1-1.1-0.4-1.2-1c0-0.1,0-0.1,0-0.2C60.9,41.7,60.9,41.5,60.9,41.3z"/>
		<path class="st0" d="M50,41.3c0,0.2,0,0.5,0,0.7c0,0.6-0.5,1-1.1,1s-1-0.5-1-1.1c0-0.4,0-0.7,0-1.1c-0.1-0.6,0.4-1.1,0.9-1.1
			c0.6-0.1,1.1,0.4,1.1,0.9c0,0.1,0,0.1,0,0.2C50,41,50,41.1,50,41.3z"/>
		<path class="st0" d="M38.5,23.5c0-3.1,2.5-5.6,5.6-5.6c3.1,0,5.6,2.5,5.6,5.6s-2.5,5.6-5.6,5.6c0,0-0.1,0-0.1,0
			C40.9,29,38.5,26.5,38.5,23.5z M40.6,23.5c0,1.9,1.5,3.4,3.4,3.5c1.9,0,3.5-1.6,3.5-3.5c0-1.9-1.5-3.4-3.4-3.5
			C42.2,20,40.6,21.5,40.6,23.5C40.6,23.4,40.6,23.4,40.6,23.5L40.6,23.5z"/>
	</g>
</g>
</svg>
