<?xml version="1.0" encoding="utf-8"?>
<!-- Generator: Adobe Illustrator 28.3.0, SVG Export Plug-In . SVG Version: 6.00 Build 0)  -->
<svg version="1.1" id="Capa_1" xmlns="http://www.w3.org/2000/svg" xmlns:xlink="http://www.w3.org/1999/xlink" x="0px" y="0px"
	 viewBox="0 0 1920 632" style="enable-background:new 0 0 1920 632;" xml:space="preserve">
<style type="text/css">
	.st0{fill:url(#SVGID_1_);}
	.st1{fill:url(#SVGID_00000036939771313547775760000004757050689796248247_);filter:url(#Adobe_OpacityMaskFilter);}
	.st2{mask:url(#mask0_245_372_00000067206757513012963710000015197911653565331079_);}
	.st3{opacity:0.2;}
	.st4{fill:#FFFFFF;}
</style>
<linearGradient id="SVGID_1_" gradientUnits="userSpaceOnUse" x1="707.9432" y1="747.6203" x2="1265.2822" y2="-202.3409" gradientTransform="matrix(1 0 0 -1 0 634)">
	<stop  offset="0" style="stop-color:#FFA301"/>
	<stop  offset="0.5484" style="stop-color:#FFD166"/>
	<stop  offset="1" style="stop-color:#FFA201"/>
</linearGradient>
<rect class="st0" width="1920" height="632"/>
<defs>
	<filter id="Adobe_OpacityMaskFilter" filterUnits="userSpaceOnUse" x="-557.1" y="-161.8" width="2769.9" height="1015.4">
		<feColorMatrix  type="matrix" values="1 0 0 0 0  0 1 0 0 0  0 0 1 0 0  0 0 0 1 0"/>
	</filter>
</defs>
<mask maskUnits="userSpaceOnUse" x="-557.1" y="-161.8" width="2769.9" height="1015.4" id="mask0_245_372_00000067206757513012963710000015197911653565331079_">
	
		<linearGradient id="SVGID_00000135674775270263502010000001879261996142931884_" gradientUnits="userSpaceOnUse" x1="708.1508" y1="747.58" x2="1265.0309" y2="-202.2921" gradientTransform="matrix(1 0 0 -1 0 634)">
		<stop  offset="0" style="stop-color:#D2EAEF"/>
		<stop  offset="1" style="stop-color:#86BBF1"/>
	</linearGradient>
	
		<rect style="fill:url(#SVGID_00000135674775270263502010000001879261996142931884_);filter:url(#Adobe_OpacityMaskFilter);" width="1920" height="632"/>
</mask>
<g class="st2">
	<g class="st3">
		<path class="st4" d="M1829,785.9c203.4,132.6,331.6-37.1,370.5-139.5c51.8-168.8-61.3-344.6-108.2-410.4
			c-37.6-52.6-93.2-217.5-116.4-293.4c-132.1-221.4-316.4-27.1-350.3,6c-33.9,33.1-117.3,170.7-252.3,238.4
			c-108,54.2-187.7,132-214,164.2c-99.8,153.8-34.3,223.1-5.4,252.7s109.8,64.3,299.1,22.2C1603.4,592.6,1766.6,718,1829,785.9z"/>
	</g>
	<g class="st3">
		<path class="st4" d="M167,804.9c203.4,132.6,331.6-37.1,370.5-139.5c51.8-168.8-61.3-344.6-108.2-410.4
			c-37.6-52.6-93.2-217.5-116.4-293.4C180.8-259.7-3.4-65.4-37.4-32.4c-34,33.1-117.3,170.7-252.3,238.4
			c-108,54.2-187.7,132-214,164.2c-99.8,153.8-34.3,223.1-5.4,252.7c28.9,29.6,109.8,64.3,299.1,22.2
			C-58.6,611.6,104.6,737,167,804.9z"/>
	</g>
</g>
</svg>
