<?xml version="1.0" encoding="utf-8"?>
<!-- Generator: Adobe Illustrator 28.3.0, SVG Export Plug-In . SVG Version: 6.00 Build 0)  -->
<svg version="1.1" id="Capa_1" xmlns="http://www.w3.org/2000/svg" xmlns:xlink="http://www.w3.org/1999/xlink" x="0px" y="0px"
	 viewBox="0 0 80 60" style="enable-background:new 0 0 80 60;" xml:space="preserve">
<style type="text/css">
	.st0{fill:#44000D;}
</style>
<path class="st0" d="M73.3,0H6.7C3,0,0,3,0,6.7v46.7C0,57,3,60,6.7,60h66.7c3.7,0,6.7-3,6.7-6.7V6.7C80,3,77,0,73.3,0z M6.7,3.3
	h66.7c0.2,0,0.5,0.1,0.7,0.1c-5.8,5.3-24.9,22.8-31.6,28.8c-0.5,0.5-1.4,1-2.4,1c-1,0-1.9-0.6-2.4-1C30.9,26.3,11.7,8.8,6,3.5
	C6.2,3.4,6.4,3.3,6.7,3.3z M3.3,53.3V6.7c0-0.3,0.1-0.6,0.2-0.9c4.4,4,17.8,16.3,26.4,24.1C21.3,37.3,8,50,3.5,54.2
	C3.4,53.9,3.3,53.6,3.3,53.3z M73.3,56.7H6.7c-0.3,0-0.5-0.1-0.8-0.2c4.6-4.4,18-17.1,26.5-24.4c1.1,1,2.1,1.9,2.9,2.6
	c1.4,1.2,3,1.9,4.7,1.9s3.3-0.7,4.7-1.9c0.8-0.7,1.8-1.6,2.9-2.6c8.5,7.3,21.9,20,26.5,24.4C73.8,56.6,73.6,56.7,73.3,56.7z
	 M76.7,53.3c0,0.3-0.1,0.6-0.2,0.9C72,50,58.7,37.3,50.1,29.9c8.7-7.9,22-20.1,26.4-24.1c0.1,0.3,0.2,0.6,0.2,0.9V53.3z"/>
</svg>
