<?xml version="1.0" encoding="utf-8"?>
<!-- Generator: Adobe Illustrator 28.3.0, SVG Export Plug-In . SVG Version: 6.00 Build 0)  -->
<svg version="1.1" id="Capa_1" xmlns="http://www.w3.org/2000/svg" xmlns:xlink="http://www.w3.org/1999/xlink" x="0px" y="0px"
	 viewBox="0 0 60 60" style="enable-background:new 0 0 60 60;" xml:space="preserve">
<style type="text/css">
	.st0{fill:#44000D;}
</style>
<path class="st0" d="M12.2,39.9c5.9,7.1,13.1,12.6,21.3,16.6c3.1,1.5,7.3,3.2,11.9,3.5c0.3,0,0.6,0,0.8,0c3.1,0,5.6-1.1,7.6-3.3
	c0,0,0,0,0-0.1c0.7-0.9,1.5-1.7,2.4-2.5c0.6-0.6,1.2-1.1,1.8-1.7c2.7-2.8,2.7-6.3,0-8.9L50.5,36c-1.3-1.3-2.8-2-4.4-2
	s-3.1,0.7-4.4,2l-4.5,4.5c-0.4-0.2-0.8-0.4-1.2-0.6c-0.5-0.2-1-0.5-1.4-0.7c-4.1-2.6-7.8-5.9-11.3-10.2c-1.8-2.3-3-4.1-3.8-6.1
	c1.2-1.1,2.3-2.2,3.3-3.2c0.4-0.4,0.8-0.8,1.1-1.2c1.3-1.3,2.1-2.9,2.1-4.5c0-1.6-0.7-3.1-2.1-4.5l-3.7-3.7
	c-0.4-0.4-0.8-0.9-1.3-1.3c-0.8-0.8-1.7-1.7-2.5-2.5C15.1,0.7,13.6,0,12,0c-1.6,0-3.1,0.7-4.4,1.9L2.9,6.6c-1.7,1.7-2.7,3.7-2.9,6.1
	c-0.2,3,0.3,6.1,1.7,9.9C4,28.5,7.3,34,12.2,39.9z M3.1,13c0.1-1.7,0.8-3,2-4.2l4.6-4.6C10.4,3.4,11.2,3,12,3c0.8,0,1.5,0.4,2.2,1.1
	c0.8,0.8,1.6,1.6,2.5,2.4C17.2,7,17.6,7.4,18,7.9l3.7,3.7c0.8,0.8,1.2,1.6,1.2,2.3c0,0.8-0.4,1.6-1.2,2.3c-0.4,0.4-0.8,0.8-1.2,1.2
	c-1.2,1.2-2.2,2.3-3.4,3.3c0,0,0,0-0.1,0.1c-1,1-0.9,2-0.6,2.8c0,0,0,0.1,0,0.1c1,2.3,2.3,4.5,4.4,7.1c3.7,4.6,7.7,8.2,12,10.9
	c0.5,0.3,1.1,0.6,1.6,0.9c0.5,0.2,1,0.5,1.4,0.7c0,0,0.1,0,0.1,0.1c0.4,0.2,0.8,0.3,1.2,0.3c1,0,1.6-0.6,1.9-0.8l4.7-4.6
	c0.7-0.7,1.5-1.1,2.3-1.1c0.9,0,1.7,0.6,2.2,1.1l7.5,7.5c1.5,1.5,1.5,3.1,0,4.7c-0.5,0.6-1.1,1.1-1.7,1.7c-0.9,0.8-1.8,1.7-2.6,2.7
	c-1.4,1.5-3.1,2.3-5.4,2.3c-0.2,0-0.4,0-0.6,0c-4.1-0.3-7.9-1.9-10.8-3.2C27,50,20.2,44.7,14.5,38c-4.7-5.6-7.8-10.8-9.9-16.3
	C3.4,18.2,2.9,15.5,3.1,13z"/>
</svg>
