<?xml version="1.0" encoding="utf-8"?>
<!-- Generator: Adobe Illustrator 28.3.0, SVG Export Plug-In . SVG Version: 6.00 Build 0)  -->
<svg version="1.1" id="Capa_1" xmlns="http://www.w3.org/2000/svg" xmlns:xlink="http://www.w3.org/1999/xlink" x="0px" y="0px"
	 viewBox="0 0 60 60" style="enable-background:new 0 0 60 60;" xml:space="preserve">
<style type="text/css">
	.st0{fill:#FFFFFF;filter:url(#Adobe_OpacityMaskFilter);}
	.st1{mask:url(#mask0_35_1502_00000039124405650164807340000004236085328186129331_);}
	.st2{fill:none;stroke:#44000D;stroke-width:2;stroke-linecap:round;stroke-linejoin:round;stroke-miterlimit:10;}
</style>
<defs>
	<filter id="Adobe_OpacityMaskFilter" filterUnits="userSpaceOnUse" x="9.7" y="0.8" width="40.7" height="58.5">
		<feColorMatrix  type="matrix" values="1 0 0 0 0  0 1 0 0 0  0 0 1 0 0  0 0 0 1 0"/>
	</filter>
</defs>
<mask maskUnits="userSpaceOnUse" x="9.7" y="0.8" width="40.7" height="58.5" id="mask0_35_1502_00000039124405650164807340000004236085328186129331_">
	<path class="st0" d="M0,0h60v60H0V0z"/>
</mask>
<g class="st1">
	<path class="st2" d="M30,58.2c-7-10.5-19.3-24.8-19.3-37.1c0-10.7,8.7-19.3,19.3-19.3s19.3,8.7,19.3,19.3
		C49.3,33.4,37,47.7,30,58.2z"/>
	<path class="st2" d="M30,29.9c-4.8,0-8.8-3.9-8.8-8.8c0-4.8,3.9-8.8,8.8-8.8s8.8,3.9,8.8,8.8C38.8,25.9,34.8,29.9,30,29.9z"/>
</g>
</svg>
