<svg xmlns="http://www.w3.org/2000/svg" xmlns:xlink="http://www.w3.org/1999/xlink" viewBox="0 0 269.25 290.5"><defs><style>.cls-1{fill:#fff;}.cls-2{fill:url(#Degradado_sin_nombre_81);}.cls-3{fill:none;stroke:#e3f2ff;stroke-miterlimit:10;stroke-width:0.95px;}</style><linearGradient id="Degradado_sin_nombre_81" x1="11.63" y1="148.32" x2="257.62" y2="148.32" gradientUnits="userSpaceOnUse"><stop offset="0" stop-color="#307bc4"/><stop offset="0.1" stop-color="#2e76bc"/><stop offset="0.26" stop-color="#2969a8"/><stop offset="0.45" stop-color="#215486"/><stop offset="0.67" stop-color="#153656"/><stop offset="0.91" stop-color="#07101a"/><stop offset="1" stop-color="#010102"/></linearGradient></defs><title>Recurso 2</title><g id="Capa_2" data-name="Capa 2"><g id="Capa_1-2" data-name="Capa 1"><path class="cls-1" d="M265.19,51.34C212.42,45.69,165,35.88,134.63,0h0C104.24,35.88,56.83,45.69,4.06,51.34L0,51.78v99.93C0,243.77,134.63,290.5,134.63,290.5h0s134.62-46.73,134.62-138.79V51.78Z"/><path id="_Trazado_" data-name="&lt;Trazado&gt;" class="cls-2" d="M134.63,278.46A321.31,321.31,0,0,1,75,247c-42-28.68-63.33-60.78-63.33-95.41V61.32c42.84-5,88.74-14.09,123-43.14,34.25,29.05,80.15,38.11,123,43.14v90.24C257.62,224.36,161.48,267.76,134.63,278.46Z"/><path class="cls-3" d="M134.63,269A296,296,0,0,1,81.88,240.3c-38.63-26.8-58.22-56.61-58.22-88.59v-83c37.4-4.8,78.69-13.63,111-38.91,32.28,25.28,73.57,34.11,111,38.91v83c0,28.63-15.86,55.67-47.15,80.39C174.56,251,147.66,263.49,134.63,269Z"/></g></g></svg>