<svg xmlns="http://www.w3.org/2000/svg" xmlns:xlink="http://www.w3.org/1999/xlink" viewBox="0 0 45.02 50.24"><defs><style>.cls-1{isolation:isolate;}.cls-2{fill:url(#linear-gradient);}.cls-3,.cls-4{mix-blend-mode:multiply;}.cls-3{fill:url(#linear-gradient-2);}.cls-4{fill:url(#linear-gradient-3);}</style><linearGradient id="linear-gradient" x1="12.73" y1="14.48" x2="34.95" y2="36.69" gradientUnits="userSpaceOnUse"><stop offset="0" stop-color="#ef4184"/><stop offset="1" stop-color="#842dff"/></linearGradient><linearGradient id="linear-gradient-2" x1="34.96" y1="7.75" x2="11.07" y2="22.02" gradientUnits="userSpaceOnUse"><stop offset="0" stop-color="#fff"/><stop offset="1" stop-color="#3750b6"/></linearGradient><linearGradient id="linear-gradient-3" x1="18.85" y1="35.54" x2="8.15" y2="30.36" xlink:href="#linear-gradient-2"/></defs><title>logo_ico</title><g class="cls-1"><g id="Capa_2" data-name="Capa 2"><g id="Capa_1-2" data-name="Capa 1"><path class="cls-2" d="M41.67,25.38c-5.73,13.09,1.53,23.89-6.93,24.84-5.11.58-7.09-14.31-7.29-15-2-6.65,3.6-13.07,3.6-13.07a16.08,16.08,0,0,0-10.26,6.75,21,21,0,0,0-3.61,8.78c-.74,4.34-2.74,13-6.9,12.51-8.46-.95-1.2-11.75-6.93-24.84-3.45-7.87-5.41-16.2.09-22A10.31,10.31,0,0,1,7.13.77c5.56-2.29,9.06,6.08,3.59,8.57a34.32,34.32,0,0,1-6.31,2.13c10.29.88,16.15-3.79,18.69-6.58A14.6,14.6,0,0,1,29.89.59c3.7-1,8.13-1,11.69,2.76C47.09,9.18,45.12,17.51,41.67,25.38Z"/><path class="cls-3" d="M29.89.59a14.6,14.6,0,0,0-6.79,4.3c-2.48,2.73-8.13,7.24-18,6.63C7.39,12.61,27.32,21.71,44.7,16c.8-4.69.2-9.12-3.12-12.64C38-.42,33.59-.46,29.89.59Z"/><path class="cls-4" d="M6.1,39.25c-.1.27-.19.53-.28.79-.06,5.74-.46,9.63,4.46,10.18,4.16.47,6.16-8.17,6.9-12.51a21,21,0,0,1,3.61-8.78,16.08,16.08,0,0,1,10.26-6.75S13.08,19.53,6.1,39.25Z"/></g></g></g></svg>