<svg xmlns="http://www.w3.org/2000/svg" xmlns:xlink="http://www.w3.org/1999/xlink" viewBox="0 0 47.42 32.03"><defs><style>.cls-1{isolation:isolate;}.cls-2{fill:url(#linear-gradient);}.cls-3{fill:url(#linear-gradient-2);}.cls-4{fill:url(#linear-gradient-3);}.cls-5{fill:url(#linear-gradient-4);}.cls-6{mix-blend-mode:multiply;fill:url(#linear-gradient-5);}.cls-7{fill:url(#linear-gradient-6);}</style><linearGradient id="linear-gradient" x1="43.17" y1="7.34" x2="8.05" y2="28.69" gradientUnits="userSpaceOnUse"><stop offset="0" stop-color="#ef4184"/><stop offset="1" stop-color="#842dff"/></linearGradient><linearGradient id="linear-gradient-2" x1="16.91" y1="-0.25" x2="26.34" y2="12.47" gradientUnits="userSpaceOnUse"><stop offset="0" stop-color="#6bd4eb"/><stop offset="1" stop-color="#842dff"/></linearGradient><linearGradient id="linear-gradient-3" x1="45.05" y1="10.42" x2="9.92" y2="31.77" xlink:href="#linear-gradient"/><linearGradient id="linear-gradient-4" x1="29.58" y1="18.02" x2="35.11" y2="29.4" xlink:href="#linear-gradient-2"/><linearGradient id="linear-gradient-5" x1="23.54" y1="8.6" x2="28.82" y2="14.62" gradientUnits="userSpaceOnUse"><stop offset="0" stop-color="#fff"/><stop offset="1" stop-color="#3750b6"/></linearGradient><linearGradient id="linear-gradient-6" x1="14.14" y1="1.8" x2="23.57" y2="14.52" xlink:href="#linear-gradient-2"/></defs><title>logo_icon_3</title><g class="cls-1"><g id="Capa_2" data-name="Capa 2"><g id="Capa_2-2" data-name="Capa 2"><path class="cls-2" d="M39.13,8.68a12.21,12.21,0,0,1-1.68,5.43,8.18,8.18,0,0,1-.45.69l-.2.31a23.83,23.83,0,0,0-11.14,4.72,2.62,2.62,0,0,0-2-.91h-.11a2.63,2.63,0,0,0-1.42.36,1.82,1.82,0,0,0-.23.15c-2,1.52-2.24,6.09-3.2,9.28-.61,2-1.53,3.51-3.41,3.3C10.5,31.47,13,24.14,11.55,18.2,17.21,17.77,29.63,16,39.13,8.68Z"/><path class="cls-3" d="M38.89,5.81c-11.76,8.83-21.29,10.8-28,10.49a8,8,0,0,0-.63-1.19l-.2-.31C7.36,10.89,6.72,4.48,11.21,1.4,15-1.18,18.65.3,21,1.92a4.5,4.5,0,0,0,5.11,0c2.35-1.62,6-3.1,9.79-.52a7.33,7.33,0,0,1,2.55,3.07l.11.27,0,.08a2.31,2.31,0,0,1,.1.28l0,0c0,.08,0,.16.07.24A3.6,3.6,0,0,1,38.89,5.81Z"/><path class="cls-4" d="M18.61,28.84C27.47,10.4,47.42,15.37,47.42,15.37,31.25,11,22,19.41,22,19.41L17.21,21Z"/><path class="cls-5" d="M31.83,32c5-.56,2-8.59,3.94-14.64a12.43,12.43,0,0,0-6.08,2,5,5,0,0,0-2.19,5.28C28.28,28.34,28.81,32.35,31.83,32Z"/><path class="cls-6" d="M38.89,5.81a3.6,3.6,0,0,0-.12-.44c0-.08-.05-.16-.07-.24l0,0a2.31,2.31,0,0,0-.1-.28l0-.08-.11-.27A7.62,7.62,0,0,0,30.86,0C30.81,6.9,10.29,15.11,10.29,15.11l1.81,1.22C18.7,16.36,27.8,14.14,38.89,5.81Z"/><path class="cls-7" d="M38.89,5.81c-11.76,8.83-21.29,10.8-28,10.49C4,16,.13,13.22,0,13.12a28.53,28.53,0,0,0,10.29,2c15.63,0,25.6-13.71,25.6-13.71A7.36,7.36,0,0,1,38.89,5.81Z"/></g></g></g></svg>