<?xml version="1.0" encoding="UTF-8"?>
<svg id="Capa_1" data-name="Capa 1" xmlns="http://www.w3.org/2000/svg" xmlns:xlink="http://www.w3.org/1999/xlink" viewBox="0 0 1920 1099">
  <defs>
    <style>
      .cls-1 {
        fill: url(#Degradado_sin_nombre_8713);
      }

      .cls-1, .cls-2, .cls-3 {
        stroke-width: 0px;
      }

      .cls-2 {
        fill: #fff;
        opacity: .2;
      }

      .cls-4 {
        mask: url(#mask);
      }

      .cls-3 {
        fill: url(#Degradado_sin_nombre_2);
      }
    </style>
    <linearGradient id="Degradado_sin_nombre_8713" data-name="Degradado sin nombre 8713" x1="642.96" y1="1091.15" x2="1347.5" y2="-109.71" gradientTransform="translate(0 1100) scale(1 -1)" gradientUnits="userSpaceOnUse">
      <stop offset="0" stop-color="#f6a118"/>
      <stop offset=".55" stop-color="#fed168"/>
      <stop offset="1" stop-color="#f6a01a"/>
    </linearGradient>
    <linearGradient id="Degradado_sin_nombre_2" data-name="Degradado sin nombre 2" x1="642.76" y1="1093.39" x2="1347.74" y2="-109.1" gradientTransform="translate(0 1100) scale(1 -1)" gradientUnits="userSpaceOnUse">
      <stop offset="0" stop-color="#d2eaf0"/>
      <stop offset="1" stop-color="#8ab9e4"/>
    </linearGradient>
    <mask id="mask" x="-287.92" y="-259.35" width="2755.14" height="1517.26" maskUnits="userSpaceOnUse">
      <g id="mask0_245_372" data-name="mask0 245 372">
        <rect class="cls-3" x="1.61" y=".7" width="1919.94" height="1099.47"/>
      </g>
    </mask>
  </defs>
  <rect class="cls-1" x="1.61" y="3.7" width="1919.94" height="1096.47"/>
  <g class="cls-4">
    <g>
      <path class="cls-2" d="M2196.11,980.25c-67.76,23.53-234.25,18.58-266.77-46-51.73-102.73-218.05-320.78-314.3-334.58-134.51-19.29-168.23-35.43-235.92-76.35s-87.3-104.48-83.37-150.27c4.55-52.9,68.97-117.3,109.13-138,65.93-33.98,233.05-49.03,290.26-65.93,62.57-18.49,167.36-97.82,229.63-117.3,71.57-22.39,176.71-54.39,247.07-28.37,102.45,37.89,255.46,228.03,284.96,334.26,26.95,97.05-2.86,307.46-39.41,401.23-28.53,73.21-147.72,195.74-221.3,221.3Z"/>
      <path class="cls-2" d="M960.48-171.28c-34.51,33.93-48.14,44.24-59.57,167.13-8.34,89.7,12.13,184,57.37,235.6,30.37,34.63,116.63,63.56,161.66,71.83,49.96,9.18,147.81,6.85,198.56,8.43,40.82,1.28,122.7,9.36,162.18,19.93,54.15,14.5,154.29,69.94,209.17,81.27,42.33,8.74,131.2,11.8,172.79,0,28.4-8.06,84.05-33.79,104.59-55.2,64.33-67.08,150.43-266.6,118.23-354.2-40.47-110.07-302.3-180.42-413.8-213.13-178.82-52.46-577.67-92.94-711.19,38.33Z"/>
      <path class="cls-2" d="M-226.86,271.31c95.49,56.73,319.85,31,445.2,4.94,49.06-10.2,157.07,16.38,194.01,50.6,56.29,52.13,58.94,124.27,56.08,168.67-3.83,59.42-52.55,159.47-65.18,226.42-11.82,62.65,1.29,147.71-53.05,284.18-9.74,24.45-45.47,94.85-45.47,94.85,0,0-74.84,117.15-115.2,135.14-60.01,26.76-211.14,33.95-262.22-7.67-104.62-85.23-193.57-368.73-200.08-504.46-5.41-112.74-50.32-509.83,45.9-452.67Z"/>
    </g>
  </g>
</svg>