<?xml version="1.0" encoding="utf-8"?>
<!-- Generator: Adobe Illustrator 28.3.0, SVG Export Plug-In . SVG Version: 6.00 Build 0)  -->
<svg version="1.1" id="Capa_1" xmlns="http://www.w3.org/2000/svg" xmlns:xlink="http://www.w3.org/1999/xlink" x="0px" y="0px"
	 viewBox="0 0 69.5 66.8" style="enable-background:new 0 0 69.5 66.8;" xml:space="preserve">
<style type="text/css">
	.st0{fill:#44000D;}
</style>
<g id="Capa_2_00000106113829834240529140000012183607338602087055_">
	<g id="Capa_4">
		<path class="st0" d="M17.9,22c-0.1,0.6,0.3,1.1,0.9,1.2c0.6,0,1.1-0.4,1.2-1c0.2-1,0.7-1.6,1.5-1.5s1.3,0.5,1.5,1.5
			c0.1,0.6,0.6,1,1.1,0.9c0.6-0.1,1-0.6,0.9-1.1c-0.1-2-1.8-3.5-3.7-3.4C19.4,18.7,18,20.2,17.9,22L17.9,22z M45.3,21.3
			c0-0.4,0-0.8,0-1.1c0-0.5-0.4-0.9-0.9-0.9c-0.5-0.1-1,0.2-1.1,0.7c0,0,0,0.1,0,0.1c-0.1,0.9-0.1,1.7,0,2.6c0,0.5,0.5,0.9,1,0.8
			c0,0,0.1,0,0.1,0c0.5,0,0.9-0.4,1-0.9c0,0,0,0,0,0C45.3,22.1,45.3,21.7,45.3,21.3L45.3,21.3z"/>
		<path class="st0" d="M69.5,42.5c-0.4,1.5-1.6,2.6-3.1,3c-1,0.3-1.9,0.7-2.8,1.2c-0.5,0.2-0.9,0.6-1.1,1.1c-0.5,1.1-1,2.2-1.4,3.4
			c-0.6,1.9-2.6,3-4.5,2.4c-0.3-0.1-0.5-0.2-0.8-0.3c-0.1,0-0.1,0-0.1,0c-0.5,1.9-0.9,3.9-1.4,5.8c-0.2,0.6-0.4,1.3-0.8,1.9
			c-0.2,0.5-0.8,0.8-1.3,0.6c0,0-0.1,0-0.1-0.1c-0.5-0.2-0.7-0.8-0.5-1.3c0,0,0,0,0-0.1c1.4-3.1,2-6.6,1.9-10
			c-0.1-5.4,1.4-10.7,4.2-15.2c1.7-2.5,3-5.2,3.8-8c1.1-3.5,1.2-7.2,0.4-10.8c-0.1-0.3-0.2-0.7-0.4-1.2c-0.4,0.9-0.7,1.6-1,2.3
			c-0.6,1.5-2.3,2.3-3.9,1.7c0,0-0.1,0-0.1,0c-0.8-0.3-1.4-0.9-1.7-1.6c-0.4-0.9-0.8-1.8-1.1-2.7c-0.2-0.5-0.6-0.8-1.1-1
			c-0.9-0.3-1.8-0.7-2.6-1.1c-1.2-0.4-2-1.6-1.9-2.9c0-1.2,0.7-2.4,1.9-2.8C50.7,6.5,51.3,6.3,52,6C46.3,3.9,40,4.7,35,8.2
			c-1.6,1.2-3.8,1.2-5.4,0c-5.2-3.7-11.9-4.5-17.8-2c-1,0.4-1.6,0.1-1.8-0.7c-0.1-0.5,0.2-1,0.7-1.2c2.9-1.3,6.1-1.8,9.3-1.6
			C24,3,27.7,4.3,30.9,6.6c0.8,0.7,2,0.7,2.9,0c5.8-4.2,13.3-5,19.9-2.2L54,4.4c0.4-0.8,0.7-1.7,1.1-2.5c0.6-1.5,2.3-2.3,3.8-1.7
			c0.8,0.3,1.5,0.9,1.9,1.8c0.4,0.9,0.7,1.9,1.2,2.7c0.2,0.4,0.5,0.7,0.9,0.9c0.9,0.4,1.8,0.8,2.7,1.1c1.2,0.4,2,1.6,2,2.9
			c0,1.3-0.7,2.4-1.9,2.8l-2.1,0.9c0.4,1.2,0.7,2.4,1,3.7c0.8,5.1-0.1,10.4-2.5,15c-0.4,0.7-0.4,1.5-0.1,2.2
			c1.3,2.9,0.6,2.2,3.4,3.4c0.4,0.2,0.9,0.4,1.3,0.5c1.5,0.4,2.6,1.5,3,3L69.5,42.5z M57.9,1.8c-0.4,0.4-0.8,0.6-1,1
			c-0.5,0.9-0.8,1.8-1.2,2.8c-0.3,0.8-1,1.5-1.8,1.8l-2.8,1.2c-0.5,0.1-0.8,0.5-0.8,1c0,0.5,0.3,0.9,0.8,1l2.8,1.1
			c0.8,0.3,1.5,1,1.8,1.8c0.3,0.8,0.7,1.7,1,2.5c0.2,0.5,0.4,1,1.1,1s0.9-0.5,1.1-1c0.3-0.8,0.7-1.6,1-2.4c0.3-0.9,1-1.6,2-1.9
			c0.9-0.4,1.8-0.8,2.7-1.1c0.6,0,1-0.4,1-1s-0.4-1-1-1l-2.8-1.1c-0.8-0.3-1.5-1-1.8-1.8c-0.4-0.9-0.8-1.9-1.2-2.8
			C58.5,2.4,58.2,2.1,57.9,1.8z M60.2,35.3c-0.1,0.1-0.2,0.2-0.3,0.3c-2.2,3.2-3.6,7-4,10.9c-0.1,1.3-0.5,2.7,0.2,4
			c0.2,0.7,0.8,1.1,1.5,1.1c0.7,0,1.3-0.5,1.5-1.1c0.5-1.2,1-2.3,1.5-3.5c0.4-1,1.2-1.8,2.2-2.2c1.2-0.5,2.4-1,3.6-1.5
			c0.6-0.2,1.1-0.8,1.1-1.5c0-0.7-0.4-1.3-1.1-1.5c-0.7-0.3-1.3-0.6-2-0.8C62.3,38.8,60.6,37.8,60.2,35.3z"/>
		<path class="st0" d="M32.2,48.4c-0.3,0.7-0.7,1.4-0.9,2.1c-0.8,2.4-1.6,4.8-2.5,7.1c-0.7,2.1-1.8,4-3.1,5.8
			c-1.5,2-3.8,3.2-6.2,3.4c-2.7,0.1-5.3-1.2-6.8-3.4c-1.4-1.8-2.3-3.9-2.8-6.2c-0.1-0.2-0.1-0.5-0.2-0.8c-1.4,0-2.6-1-2.9-2.4
			c-0.3-1.3-1.3-2.4-2.7-2.6c-0.3-0.1-0.7-0.2-1-0.4c-0.9-0.4-1.4-1.3-1.4-2.3c-0.1-1,0.5-1.9,1.4-2.4c0.8-0.4,1.5-0.6,2.3-1
			c0.3-0.2,0.6-0.4,0.7-0.7c0.5-1,1-2,1.4-3c0-0.2,0-0.4-0.1-0.6c-0.7-1.5-1.4-3.1-2.3-4.6C3.8,34,2.5,31.6,1.5,29
			c-1.5-4.2-1.8-8.7-0.9-13c0.9-3.4,2.8-6.5,5.6-8.7c0.3-0.4,1-0.5,1.4-0.2c0.1,0,0.1,0.1,0.2,0.2C8.1,7.8,8,8.4,7.5,8.9
			C4.8,11,3,14.1,2.4,17.4c-0.7,4.1-0.1,8.3,1.6,12.1c0.8,1.9,2,3.6,2.9,5.4s1.8,3.6,2.7,5.3c0.1,0.2,0.4,0.4,0.6,0.5
			c0.8,0.2,1.5,0.8,1.9,1.6c0.3,0.7,0.6,1.4,0.9,2.1c0.2,0.3,0.4,0.6,0.7,0.7c0.7,0.3,1.4,0.6,2.1,0.9c1,0.4,1.7,1.4,1.6,2.4
			c0.1,1.1-0.6,2.1-1.6,2.4c-1.9,0.4-3.4,1.9-3.8,3.8c-0.2,0.5-0.3,1.1-0.2,1.7c0.5,2.4,1.6,4.7,3.3,6.5c2.1,2.3,5.7,2.4,8,0.3
			c0.1-0.1,0.2-0.2,0.3-0.3c1.5-1.5,2.6-3.4,3.3-5.4c1-2.7,1.9-5.5,2.9-8.2c0.2-0.6,0.5-1.2,0.8-1.7c1.1-1.9,2.9-1.9,4.1,0
			c0.5,0.9,0.9,1.8,1.2,2.8c1,2.7,1.9,5.4,2.9,8c0.6,1.7,1.6,3.2,2.9,4.5c2,2,5.1,2.3,7.4,0.7c0.7-0.4,1.2-0.4,1.6,0.1
			s0.2,1.1-0.5,1.6c-3,2.1-7,1.9-9.7-0.6c-1.7-1.6-3.1-3.6-3.9-5.9c-1-2.7-1.9-5.4-2.9-8c-0.3-0.8-0.7-1.6-1-2.4L32.2,48.4z
			 M9.5,54.5c0.2-0.2,0.4-0.4,0.6-0.7c0.3-0.7,0.6-1.4,0.9-2.1c0.3-0.8,0.9-1.4,1.7-1.7c0.7-0.3,1.4-0.5,2.1-0.9
			c0.2-0.1,0.4-0.3,0.5-0.6c-0.1-0.3-0.2-0.5-0.5-0.6c-0.7-0.3-1.4-0.6-2.1-0.9c-0.8-0.3-1.4-0.9-1.7-1.7c-0.3-0.7-0.6-1.4-0.9-2.1
			c-0.1-0.2-0.4-0.5-0.6-0.5C9.2,43,9,43.2,8.9,43.4c-0.3,0.7-0.6,1.4-0.9,2c-0.3,0.7-0.9,1.3-1.6,1.6c-0.7,0.3-1.4,0.5-2.1,0.9
			c-0.3,0.1-0.5,0.4-0.5,0.7c0,0.2,0.3,0.5,0.5,0.6c0.7,0.3,1.4,0.6,2.1,0.9C7.1,50.4,7.7,51,8,51.8c0.3,0.7,0.6,1.4,0.9,2.1
			C9.1,54.1,9.3,54.3,9.5,54.5z"/>
		<path class="st0" d="M32.6,20.7c0.8,0.1,1.8,0.1,2.8,0.3c2,0.3,3.4,1.9,3.4,3.9c0.3,3.1-1.5,6.1-4.4,7.2c-3.3,1.1-6.9-0.6-8-3.9
			c0,0,0,0,0-0.1C26,27,25.8,25.7,26,24.5c0.2-2,1.7-3.3,4-3.5C30.7,20.8,31.5,20.8,32.6,20.7z"/>
		<path class="st0" d="M17.9,22c0.2-2,2-3.4,3.9-3.2c1.7,0.2,3,1.5,3.2,3.2c0.1,0.6-0.3,1-0.9,1.1s-1-0.3-1.1-0.9
			c-0.2-1-0.7-1.5-1.5-1.5s-1.4,0.5-1.5,1.5c-0.1,0.6-0.6,1-1.2,1C18.2,23.1,17.8,22.6,17.9,22z"/>
		<path class="st0" d="M45.3,21.3c0,0.4,0,0.8,0,1.1c0,0.5-0.4,0.9-0.9,1c0,0,0,0,0,0c-0.5,0.1-1-0.2-1-0.7c0,0,0-0.1,0-0.1
			c-0.1-0.9-0.1-1.7,0-2.6c0-0.5,0.5-0.8,1-0.8c0,0,0.1,0,0.1,0c0.5,0,0.9,0.4,0.9,0.9C45.3,20.6,45.3,21,45.3,21.3z"/>
	</g>
</g>
</svg>
