<?xml version="1.0" encoding="utf-8"?>
<!-- Generator: Adobe Illustrator 28.3.0, SVG Export Plug-In . SVG Version: 6.00 Build 0)  -->
<svg version="1.1" id="Capa_1" xmlns="http://www.w3.org/2000/svg" xmlns:xlink="http://www.w3.org/1999/xlink" x="0px" y="0px"
	 viewBox="0 0 61.9 76.8" style="enable-background:new 0 0 61.9 76.8;" xml:space="preserve">
<style type="text/css">
	.st0{fill:#44000D;}
</style>
<g id="Capa_2_00000145776480089055247620000001841969126763491260_">
	<g id="Capa_6">
		<path class="st0" d="M13.4,76.8c-4.2-1.8-5.4-5.5-6.3-9.4c-0.4-1.8-0.6-3.7-0.6-5.6c0-3.4-1.2-6.8-3.3-9.4
			c-4-5.1-4.3-12.1-0.7-17.5c4-6.3,12.5-8.2,18.8-4.2c0.2,0.1,0.4,0.3,0.6,0.4c0.9,0.8,2.3,0.8,3.2,0c5.5-4,13.2-3.2,17.9,1.8
			c0.1,0.1,0.2,0.2,0.3,0.4c0.4,0.5,0.4,1.2-0.1,1.6c0,0,0,0,0,0c-0.4,0.4-1.1,0.4-1.5,0c0,0,0,0-0.1-0.1c-0.5-0.5-1.1-1.1-1.6-1.5
			c-3.8-3-9.1-3.3-13.1-0.6c-0.3,0.2-0.5,0.4-0.7,0.6c-1.9,2.6-4.7,4.3-7.9,4.7c-1,0.2-2.1,0.2-3.1,0.2c-0.6,0.1-1.2-0.4-1.3-1
			c-0.1-0.6,0.4-1.2,1-1.3c0.1,0,0.2,0,0.3,0c2.2,0.2,4.5-0.3,6.4-1.4c0.3-0.1,0.5-0.3,0.7-0.6c-1-0.3-1.9-0.8-2.7-1.5
			C14.2,29.3,7.1,31.2,4,36.7c-0.5,0.9-0.9,1.8-1.1,2.8C1.5,43.4,2.4,47.7,5,50.9c2.5,3.1,3.8,6.9,3.8,10.8
			c-0.1,3.3,0.6,6.6,2.1,9.6c0.4,0.8,1,1.6,1.6,2.2c0.9,1,2.5,1.1,3.6,0.2c0.1-0.1,0.1-0.1,0.2-0.2c0.9-0.9,1.6-1.9,2-3.1
			c0.9-2.2,1.4-4.5,1.6-6.8c0.1-1.9,1.7-3.4,3.6-3.3c1.9,0.1,3.4,1.6,3.4,3.5c0.2,2.5,0.8,4.9,1.8,7.2c0.4,0.9,1,1.8,1.8,2.5
			c0.9,1.1,2.5,1.2,3.6,0.3c0.1-0.1,0.2-0.2,0.3-0.3c1.2-1.3,2.1-2.9,2.6-4.6c0.7-2.4,1.1-4.9,1.1-7.4c0-3.8,1.3-7.6,3.7-10.5
			c1.3-1.6,2.2-3.5,2.6-5.5c0.4-2,0.3-4-0.2-6c-0.1-0.2-0.1-0.4-0.2-0.6c-0.2-0.6,0-1.2,0.6-1.5c0.6-0.2,1.2,0,1.5,0.6
			c0,0.1,0.1,0.1,0.1,0.2c0.4,1.2,0.7,2.4,0.7,3.6c0.3,3.7-0.8,7.3-3.1,10.2c-2.3,2.7-3.5,6.2-3.5,9.8c0,3.4-0.6,6.7-2,9.8
			c-0.6,1.3-1.4,2.5-2.4,3.5c-0.8,0.7-1.7,1.2-2.7,1.5h-1.8c-1.4-0.5-2.6-1.4-3.5-2.6c-1.4-2-2.4-4.4-2.8-6.8
			c-0.2-1.1-0.4-2.2-0.5-3.3c0-0.7-0.6-1.3-1.3-1.3c-0.7,0-1.2,0.5-1.3,1.2c0,0.2-0.1,0.4-0.1,0.7c-0.1,1.5-0.4,3-0.8,4.4
			c-1,3.4-2.3,6.6-6.1,7.8H13.4z"/>
		<path class="st0" d="M50.1,13.4c-0.3,0.9-0.6,1.1-1.6,1.1c-4.5,0-9,0-13.6,0c-0.6,0-0.7,0.1-0.7,0.7c0,3.4-2.7,6.2-6.1,6.3
			c0,0-0.1,0-0.1,0c-0.9,0-1.9,0-2.8,0c-0.5,0-0.8,0.1-0.7,0.7c0.1,0.9,0,1.9,0,2.8s-0.4,1.3-1.1,1.3s-1.1-0.5-1.1-1.3
			c0-1,0-2,0-2.9c0-0.4-0.1-0.5-0.5-0.5c-1.2,0-2.4,0-3.6-0.1c-3.2-0.3-5.7-3-5.6-6.2c0.1-0.9-0.3-1.8-1.1-2.3
			c-1.4-1.1-2.2-2.7-2.1-4.5c-0.1-1.1,0-2.1,0.1-3.2c0.3-2.4,2-4.3,4.3-5c0.2-0.1,0.5,0,0.6-0.3h45.1c1.9,0.8,2.5,1.6,2.5,3.7v7.3
			c0,2.3-1.2,3.5-3.5,3.5c-1.3,0-2.7,0-4,0c-0.7,0.1-1.4-0.4-1.5-1.1c0,0,0-0.1,0-0.1c0.2-0.8,0.9-1.3,1.7-1.1c1.3,0.1,2.5,0,3.8,0
			c1,0,1.1-0.2,1.1-1.1c0-2.6,0-5.1,0-7.7c0-1-0.2-1.2-1.2-1.2h-15c-0.2,0-0.4-0.1-0.5,0c1.8,3.1,1.8,6.9,0,10h5.7
			C49.6,12.3,49.8,12.5,50.1,13.4z M26.7,12.3c3.7,0,7.4,0,11.2,0c2.2,0,4-1.7,4-3.9c0,0,0,0,0-0.1c0-0.6,0-1.3,0-1.9
			C42,4.2,40.2,2.3,38,2.2c-0.1,0-0.2,0-0.3,0h-7.3c-4.9,0-9.9,0-14.8,0c-2.2,0-4,1.7-4,3.9c0,0,0,0,0,0c0,0.6,0,1.2,0,1.8
			c-0.2,2.2,1.4,4.1,3.6,4.3c0.2,0,0.5,0,0.7,0L26.7,12.3z M23.5,14.6L23.5,14.6c-2.7,0-5.4,0-8.1,0c-0.5,0-0.6,0.2-0.6,0.6
			c0,2.2,1.7,4,3.9,4.1c0,0,0.1,0,0.1,0c3.1,0.1,6.2,0.1,9.3,0c2.2,0,4-1.8,4-4c0,0,0-0.1,0-0.1c0-0.5-0.1-0.6-0.6-0.6
			C28.8,14.6,26.1,14.6,23.5,14.6z"/>
		<path class="st0" d="M25.4,49.9c-0.6,0.1-1.3-0.6-1.9-0.5s-1.2,0.6-2,0.6c-1.6,0-2.9-1.3-3-2.9c-0.1-0.6,0.4-1.2,1-1.3
			c0,0,0,0,0,0c0.6-0.1,1.1,0.4,1.2,0.9c0,0,0,0,0,0.1c0,0.3,0.1,0.5,0.3,0.8c0.2,0.2,0.5,0.3,0.8,0.2c0.3-0.1,0.6-0.4,0.6-0.8
			c0-0.6,0.4-1,1-1.1c0.6-0.1,1.2,0.4,1.2,1c0,0,0,0,0,0c0.1,0.5,0.3,0.9,0.8,0.9s0.8-0.4,0.8-0.9c0-0.6,0.5-1.1,1.2-1.1
			c0,0,0.1,0,0.1,0c0.6,0.1,1.1,0.7,1,1.3c0,0,0,0,0,0.1C28.3,48.8,27,50,25.4,49.9z"/>
		<path class="st0" d="M14.8,23.1c0,0.5-0.3,1-0.8,1.1c-0.4,0.1-0.5,0.2-0.3,0.7c0.3,0.8,0.1,1.4-0.6,1.6s-1.2,0-1.5-0.8
			c-0.2-0.4-0.3-0.4-0.6-0.3c-0.8,0.3-1.4,0.1-1.6-0.5s0-1.2,0.9-1.5c0.3-0.1,0.4-0.3,0.2-0.6c-0.3-0.9-0.1-1.4,0.6-1.7
			s1.2,0,1.5,0.8c0.2,0.5,0.4,0.3,0.7,0.2C14.1,21.9,14.8,22.3,14.8,23.1z"/>
		<path class="st0" d="M37.6,22.9c0,0.4-0.2,0.8-0.5,1.1c-0.3,0.2-0.3,0.4-0.1,0.7c0.5,0.4,0.5,1.1,0.1,1.6c0,0-0.1,0.1-0.1,0.1
			c-0.5,0.5-1.1,0.4-1.7-0.2c-0.3-0.3-0.5-0.3-0.8,0c-0.4,0.5-1.1,0.5-1.6,0.1c0,0-0.1-0.1-0.1-0.1c-0.4-0.4-0.4-1.1,0-1.5
			c0.1-0.1,0.1-0.1,0.2-0.2c0.4-0.3,0.3-0.5,0-0.8c-0.4-0.4-0.4-1.1,0-1.6c0.4-0.4,1.1-0.4,1.6,0c0,0,0.1,0.1,0.1,0.1
			c0.3,0.4,0.6,0.4,0.9,0.1c0.3-0.4,0.9-0.4,1.3-0.2C37.4,22.1,37.6,22.5,37.6,22.9z"/>
		<path class="st0" d="M28.9,45.1c0.1-1.6,1.4-2.9,3-2.9c1.6,0,2.9,1.3,2.9,2.9c0,0.6-0.4,1.1-1,1.2c-0.6,0.1-1.1-0.3-1.2-0.9
			c0,0,0-0.1,0-0.1c-0.1-0.5-0.2-0.9-0.8-0.9s-0.7,0.4-0.7,0.9c-0.1,0.6-0.6,1.1-1.3,1C29.2,46.3,28.8,45.7,28.9,45.1L28.9,45.1
			L28.9,45.1z"/>
		<path class="st0" d="M15.2,42.3c1.6,0,2.9,1.2,3,2.8c0.1,0.6-0.3,1.2-0.9,1.3c0,0,0,0,0,0c-0.6,0.1-1.2-0.3-1.3-0.8
			c0,0,0-0.1,0-0.1c-0.1-0.5-0.2-0.9-0.7-0.9s-0.7,0.4-0.8,0.8c-0.1,0.6-0.6,1.1-1.2,1c-0.6-0.1-1.1-0.6-1-1.2c0,0,0-0.1,0-0.1
			C12.3,43.5,13.6,42.3,15.2,42.3z"/>
	</g>
</g>
</svg>
