<?xml version="1.0" encoding="utf-8"?>
<!-- Generator: Adobe Illustrator 28.3.0, SVG Export Plug-In . SVG Version: 6.00 Build 0)  -->
<svg version="1.1" id="Capa_1" xmlns="http://www.w3.org/2000/svg" xmlns:xlink="http://www.w3.org/1999/xlink" x="0px" y="0px"
	 viewBox="0 0 70.5 61.9" style="enable-background:new 0 0 70.5 61.9;" xml:space="preserve">
<style type="text/css">
	.st0{fill:#44000D;}
</style>
<g id="Capa_2_00000183217852823059016240000015015869320196210593_">
	<g id="Capa_5">
		<path class="st0" d="M62,37.4l-6.7,6.7c0.2,0.2,0.4,0.5,0.7,0.7l13.8,13.8c0.2,0.2,0.5,0.4,0.6,0.7c0.1,0.3,0.1,0.7,0.1,1
			c-0.3,0-0.6,0-0.9-0.1c-0.2,0-0.3-0.3-0.4-0.4c-5-5-10.1-10.1-15.2-15.2c-0.2-0.2-0.4-0.5-0.5-0.7c-5-8-10.1-16-15.1-24
			c-2.2-3.5-5.5-5.3-9.5-6c-0.6-0.2-1.2,0.1-1.5,0.6c-0.8,1.3-2.2,2.1-3.8,2.2c-3.6,0.2-7.1,0.1-10.7-0.2C7,16,3,9.5,4.7,4
			c0.4-1.5,1.3-2.7,2.6-3.5c1.7-1,2.9-0.4,3.1,1.5c0.1,2.2,1.9,3.9,4.1,3.9c2.6,0.1,5.3,0,8,0c2-0.1,3.8,0.8,5,2.4
			c0.4,0.3,0.9,0.5,1.4,0.5c5-0.2,9.7,2.3,12.4,6.6c1.2,1.8,2.6,3.6,4,5.3c3.6,4.1,7.6,7.9,12,11.1c4.5,3.7,8.8,7.7,12.8,12
			c0.3,0.3,0.5,1,0.3,1.2c-0.5,0.6-0.9,0.1-1.2-0.3L62,37.4z M28.4,12.6c0.3,0.1,0.5,0.1,0.7,0.2c4.3,0.5,8.2,3,10.5,6.7
			C44.2,27,49,34.5,53.7,42l0.5,0.8l6.5-6.5L60,35.7c-3.3-2.7-6.6-5.4-9.8-8.1c-4-3.5-7.5-7.6-10.5-12c-2.7-3.9-6.7-5.6-11.4-5.4
			V12.6z M18.4,15.5v0.1h2.1c1,0,2,0,3.1-0.1c2.3-0.4,3.8-2.5,3.4-4.7c-0.3-1.9-1.9-3.3-3.8-3.5c-2.8-0.1-5.6,0-8.4,0
			c-3,0.1-5.5-2.2-5.7-5.1C9.1,1.3,8.8,1.2,8,1.6C7,2.3,6.3,3.3,6,4.4c-1.5,4.9,2.2,10.6,7.4,11C15.1,15.6,16.7,15.5,18.4,15.5
			L18.4,15.5z"/>
		<path class="st0" d="M34.8,51v9.4c0.1,0.3,0.1,0.6,0,0.9c-0.1,0.2-0.4,0.6-0.6,0.6c-0.3-0.1-0.5-0.3-0.6-0.5
			c-0.1-0.3-0.1-0.6,0-0.9c0-6.1,0-12.1,0-18.1c0-4.5-2.9-7.3-7.3-7.4c-5.8,0-11.6,0-17.4,0c-4.5,0-7.4,2.9-7.4,7.4
			c0,6,0,11.9,0,17.9c0,0.3,0.1,0.6,0,0.8c-0.2,0.3-0.4,0.7-0.7,0.9c-0.2-0.3-0.6-0.6-0.6-0.9c0-6.6-0.1-13.1,0-19.7
			c0-3.3,2.2-6.2,5.3-7.1c0.6-0.2,1-0.7,1-1.4c0.3-3.4,0.6-6.8,0.9-10.3c0.2-2.6,1-3.4,3.6-3.4c4.4,0,8.8,0,13.2,0
			c2.1,0,3,0.8,3.2,2.9c0.3,3.7,0.7,7.3,1,11c0,0.5,0.3,0.9,0.8,1c3.4,1.1,5.7,4.3,5.6,7.9C34.8,45,34.8,48,34.8,51z M27,33.6
			c0-0.1,0.1-0.2,0.1-0.2c-0.3-3.9-0.7-7.7-1-11.6c0-0.7-0.6-1.3-1.4-1.3c-0.1,0-0.1,0-0.2,0H10.3c-0.7-0.1-1.4,0.4-1.5,1.2
			c0,0.1,0,0.1,0,0.2c-0.2,1.9-0.4,3.7-0.5,5.6c-0.2,2-0.3,4.1-0.5,6.1h3.8v-1.2c0-2.8,0-5.6,0-8.4c0-0.5-0.2-1.2,0.6-1.3
			s0.7,0.7,0.7,1.2c0,2.8,0,5.6,0,8.5v1.1h3.9c0-3.3,0-6.5,0-9.8c0-0.3,0.4-0.7,0.7-1c0.2,0.3,0.6,0.7,0.6,1c0,2.5,0,5,0,7.4v2.4h4
			v-2.1c0-2.6,0-5.2,0-7.9c0-0.3,0.4-0.6,0.6-0.9c0.2,0.3,0.5,0.5,0.6,0.9c0.1,0.1,0,0.4,0,0.6v9.4H27z"/>
		<path class="st0" d="M18.1,52v8.5c0,0.3,0,0.6-0.1,0.9c-0.1,0.2-0.4,0.5-0.5,0.5c-0.3-0.1-0.5-0.2-0.7-0.5
			c-0.1-0.3-0.1-0.5-0.1-0.8V43.5c0-0.3,0-0.5,0.1-0.8c0.1-0.2,0.4-0.4,0.6-0.5c0.2,0,0.5,0.3,0.5,0.5c0.1,0.3,0.1,0.6,0.1,0.9V52z"
			/>
	</g>
</g>
</svg>
