<?xml version="1.0" encoding="utf-8"?>
<!-- Generator: Adobe Illustrator 28.3.0, SVG Export Plug-In . SVG Version: 6.00 Build 0)  -->
<svg version="1.1" id="Capa_1" xmlns="http://www.w3.org/2000/svg" xmlns:xlink="http://www.w3.org/1999/xlink" x="0px" y="0px"
	 viewBox="0 0 67.3 67.2" style="enable-background:new 0 0 67.3 67.2;" xml:space="preserve">
<style type="text/css">
	.st0{fill:#44000D;}
</style>
<g id="Capa_2_00000178183775279189748350000001622224486287659932_">
	<g id="Capa_7">
		<path class="st0" d="M42.2,39.2L40.4,41c1.5,2,1.5,3.8,0.1,5.5s-3,1.9-6.2,0.5l-1.8,1.8c1,1,1.3,2.4,1,3.7
			c-0.2,0.9-0.6,1.7-1.2,2.3c-1.4,1.5-3.1,1.5-5.9,0l-1.8,1.7c1.5,2.5,1.4,4.4-0.2,6c-1.6,1.6-3.4,1.6-5.9,0
			c-1.1,1.1-2.1,2.1-3.2,3.2c-1.7,1.7-4.4,1.8-6.1,0.1c0,0-0.1-0.1-0.1-0.1l-0.4-0.4l-7-6.9c-2.2-2.2-2.2-4.9,0.1-7.1
			c0.2-0.2,0.3-0.3,0.5-0.4c-1.5-2.1-1.5-4.3,0-5.9s3.4-1.7,6-0.2l1.7-2c-1.4-1.7-1.3-4.1,0.2-5.7c1.5-1.6,3.4-1.7,6-0.2l1.8-1.9
			c-1.5-2.4-1.5-4.2,0.2-5.9s3.4-1.6,5.8-0.1l1.9-1.8c-1.5-2.2-1.5-4,0-5.7s3.4-1.9,5.9-0.5c1.1-1,2.1-1.9,3.1-2.8
			c0.5-0.5,0.4-1.3-0.1-1.8c0,0-0.1-0.1-0.1-0.1c-0.8-0.9-1.7-1.7-2.5-2.6c-2.1-1.8-2.3-5-0.4-7.1c0.2-0.2,0.3-0.3,0.5-0.5
			c1.5-1.5,3-3,4.5-4.5c2-2.2,5.3-2.3,7.5-0.4c0.1,0.1,0.2,0.2,0.4,0.4l21.1,21.4c2.1,1.8,2.4,4.9,0.6,7c-0.2,0.2-0.4,0.4-0.6,0.6
			L61,35.1c-1.9,2.2-5.2,2.4-7.4,0.4c-0.2-0.1-0.3-0.3-0.4-0.4L51,32.9c-1-1-1.7-1-2.7,0.2c1.6,1.6,1.6,4.1,0.1,5.8
			C46.9,40.5,45.2,40.6,42.2,39.2z M33.9,22.8L46,31.5c0.5-0.4,0.9-0.8,1.3-1.1c1.5-1.3,3.8-1.2,5.2,0.3c1,0.8,1.8,1.8,2.7,2.6
			c0.9,1.1,2.6,1.2,3.6,0.3c0.1-0.1,0.2-0.2,0.3-0.3c1.6-1.6,3.1-3.2,4.7-4.8c0.9-0.8,1-2.3,0.2-3.2c-0.1-0.1-0.1-0.1-0.2-0.2
			L42.2,3.5c-0.9-1-2.5-1.1-3.5-0.2c-0.1,0.1-0.1,0.1-0.2,0.2c-1.6,1.6-3.2,3.2-4.7,4.7c-1,0.8-1.1,2.3-0.3,3.3
			c0.1,0.1,0.1,0.2,0.2,0.2c0.8,0.9,1.6,1.7,2.5,2.6c2,2.2,2,4.3-0.1,6.4C35.4,21.4,34.7,22.1,33.9,22.8z M5.5,46.5
			c-0.7-0.1-1.4,0.4-1.7,1.1c-0.2,0.7,0,1.5,0.7,1.8l16,11.4c0.6,0.6,1.5,0.6,2.1,0c0.1-0.1,0.1-0.2,0.2-0.3
			c0.5-0.7,0.4-1.6-0.3-2.1c-0.1,0-0.1-0.1-0.2-0.1c-5.3-3.8-10.7-7.6-16-11.4C6.1,46.7,5.8,46.5,5.5,46.5z M31.2,51.8
			c-0.1-0.6-0.5-1.2-1-1.5L22,44.5L14.3,39c-0.7-0.6-1.7-0.5-2.2,0.2c-0.6,0.7-0.5,1.7,0.2,2.2c0.1,0.1,0.2,0.1,0.3,0.2
			c2.8,2,5.5,3.9,8.3,5.9l7.7,5.4c0.4,0.4,1.1,0.5,1.6,0.2C30.5,52.8,30.8,52.3,31.2,51.8z M27.3,24.4c0,0.6,0.4,1.1,1,1.4l11,7.8
			c1.7,1.2,3.4,2.4,5.1,3.6c0.6,0.5,1.4,0.4,1.9-0.2c0,0,0.1-0.1,0.1-0.1c0.6-0.6,0.5-1.5-0.1-2.1c-0.2-0.2-0.4-0.3-0.6-0.5
			L30.2,23.4c-0.2-0.2-0.5-0.3-0.7-0.5c-0.8-0.3-1.7,0-2,0.8C27.4,23.9,27.3,24.2,27.3,24.4z M21.3,30.7c-0.8-0.1-1.5,0.4-1.8,1.1
			c-0.2,0.7,0.1,1.4,0.8,1.7c1.5,1,3.1,2,4.7,3.1c3.8,2.8,7.5,5.6,11.3,8.3c0.6,0.6,1.5,0.6,2.1,0c0.1-0.1,0.2-0.2,0.3-0.3
			c0.5-0.6,0.5-1.5-0.1-2c-0.1-0.1-0.2-0.2-0.4-0.2L22.2,31.1C21.9,30.9,21.6,30.8,21.3,30.7z M16.2,61L4.4,52.5
			c-0.4,0.4-0.8,0.7-1.1,1.1c-0.8,0.7-0.8,1.8-0.2,2.6c0,0,0.1,0.1,0.1,0.1c2.6,2.6,5.2,5.2,7.8,7.8c0.6,0.7,1.6,0.7,2.3,0.1
			c0,0,0.1-0.1,0.1-0.1C14.4,63.1,15.3,62,16.2,61z M32.1,45.3l-11.8-8.4l-1.9,1.8l12,8.5L32.1,45.3z M24.2,53.1l-11.8-8.4l-1.9,1.8
			L22.4,55L24.2,53.1z M26.2,30.7L38,39.2l2-1.8l-12-8.6L26.2,30.7z"/>
	</g>
</g>
</svg>
